<svg width="1042" height="554" viewBox="0 0 1042 554" fill="none" xmlns="http://www.w3.org/2000/svg">
<g clip-path="url(#clip0)">
<path d="M357.93 338.648C359 336.488 360.78 334.788 362.26 332.898C362.045 333.076 361.822 333.243 361.59 333.398C360.495 333.863 359.482 334.501 358.59 335.288C358.044 336.047 357.674 336.918 357.51 337.838L354.96 347.738C355.46 347.108 355.96 346.488 356.47 345.868C356.439 343.385 356.937 340.924 357.93 338.648V338.648Z" fill="#F2F2F2"/>
<path d="M598.66 345.341C598.49 346.461 598.153 347.55 597.66 348.571C597.685 352.761 597.126 356.934 596 360.971C595.528 362.674 595.177 364.408 594.95 366.161C592.59 382.301 590.31 399.161 594.34 414.801C594.63 413.851 595.156 412.991 595.87 412.301C598.53 409.031 599.58 404.761 600.37 400.621C604.52 378.821 603.37 356.561 602.37 334.291C601.752 333.61 601.013 333.05 600.19 332.641C600.237 333.614 600.213 334.59 600.12 335.561C599.8 338.843 599.313 342.108 598.66 345.341Z" fill="#F2F2F2"/>
<path d="M458.44 338.668C458.413 337.397 458.148 336.142 457.66 334.968C457.142 333.988 456.489 333.086 455.72 332.288L453.56 329.828C452.46 355.948 450.12 382.138 454.98 407.708C455.77 411.848 456.82 416.118 459.48 419.388C460.194 420.078 460.72 420.939 461.01 421.888C465.01 406.278 462.76 389.388 460.4 373.248C460.173 371.496 459.822 369.761 459.35 368.058C457.576 361.494 457.171 354.635 458.16 347.908C458.557 344.845 458.65 341.75 458.44 338.668V338.668Z" fill="#F2F2F2"/>
<path d="M470.82 283.549C473.71 288.299 475.51 293.949 477.13 299.329L477.82 301.669C477.49 293.759 477.33 285.859 477.27 277.949C475.71 279.339 474.14 280.699 472.56 282.059L470.82 283.549Z" fill="#F2F2F2"/>
<path d="M494.07 550.108C494.507 544.569 494.078 538.995 492.8 533.588C491.92 530.168 490.56 526.818 490.44 523.278C490.465 520.92 490.753 518.572 491.3 516.278C495.41 495.378 497.18 473.388 490.96 453.018C489.29 447.558 487.08 442.278 485.38 436.828C484.605 438.873 483.662 440.85 482.56 442.738C482.324 441.86 481.896 441.045 481.306 440.353C480.716 439.661 479.98 439.11 479.15 438.738C479.197 439.712 479.173 440.688 479.08 441.658C478.782 444.926 478.318 448.177 477.69 451.398C477.512 452.656 477.094 453.868 476.46 454.968C475.631 456.115 474.522 457.03 473.24 457.628C473.82 458.938 474.4 460.258 474.97 461.568L470.8 462.848C473.54 468.848 471.26 475.688 469.8 482.068C464.57 504.258 469.28 527.958 466.8 550.388L494.07 550.108Z" fill="#F2F2F2"/>
<path d="M478.93 232.648C480 230.488 481.78 228.788 483.26 226.898C483.045 227.076 482.822 227.243 482.59 227.398C481.495 227.863 480.482 228.501 479.59 229.288C479.044 230.047 478.674 230.918 478.51 231.838L475.96 241.738C476.46 241.108 476.96 240.488 477.47 239.868C477.439 237.385 477.937 234.924 478.93 232.648V232.648Z" fill="#F2F2F2"/>
<path d="M579.44 232.668C579.412 231.397 579.148 230.142 578.66 228.968C578.142 227.988 577.489 227.086 576.72 226.288L574.56 223.828C573.48 249.548 571.2 275.348 575.78 300.548C576.59 297.828 577.41 295.108 578.22 292.378C579.455 287.891 581.064 283.516 583.03 279.298C582.56 275.298 581.98 271.228 581.4 267.298C581.172 265.546 580.821 263.811 580.35 262.108C578.576 255.544 578.171 248.685 579.16 241.958C579.559 238.878 579.653 235.766 579.44 232.668V232.668Z" fill="#F2F2F2"/>
<path d="M535.83 429.25L532.41 549.7L541.41 549.6C539.826 534.938 539.104 520.196 539.25 505.45C539.25 501.16 539.4 496.83 538.51 492.63C537.88 489.7 536.78 486.89 536.18 483.96C535.592 480.442 535.367 476.874 535.51 473.31L535.83 429.25Z" fill="#F2F2F2"/>
<path d="M458.49 429.311C458.63 428.981 458.77 428.651 458.9 428.311C459.37 427.091 459.79 425.861 460.18 424.621C460.149 424.666 460.122 424.712 460.1 424.761C459.31 426.061 458.45 427.311 457.56 428.531C457.88 428.791 458.19 429.041 458.49 429.311Z" fill="#F2F2F2"/>
<path d="M186.44 294.668C186.413 293.397 186.148 292.142 185.66 290.968C185.142 289.988 184.489 289.086 183.72 288.288L181.56 285.828C180.46 311.948 178.12 338.138 182.98 363.708C183.77 367.848 184.82 372.118 187.48 375.388C188.194 376.078 188.72 376.939 189.01 377.888C193.01 362.278 190.76 345.388 188.4 329.248C188.189 327.497 187.855 325.763 187.4 324.058C185.626 317.494 185.221 310.635 186.21 303.908C186.59 300.843 186.667 297.748 186.44 294.668V294.668Z" fill="#F2F2F2"/>
<path d="M186.49 385.311C186.63 384.981 186.77 384.651 186.9 384.311C187.37 383.091 187.79 381.861 188.18 380.621C188.149 380.666 188.122 380.712 188.1 380.761C187.31 382.061 186.45 383.311 185.56 384.531C185.88 384.791 186.19 385.041 186.49 385.311Z" fill="#F2F2F2"/>
<path d="M142.83 491.25C142.243 512.15 141.65 533.047 141.05 553.94L145.34 553.89C144.7 551.23 143.75 548.65 143.2 545.96C142.611 542.442 142.387 538.874 142.53 535.31L142.83 491.25Z" fill="#F2F2F2"/>
<path d="M207.08 551.649C205.795 551.045 204.687 550.123 203.86 548.969C203.216 547.844 202.798 546.604 202.63 545.319C202.002 542.098 201.538 538.847 201.24 535.579C201.146 534.608 201.123 533.633 201.17 532.659C200.34 533.03 199.604 533.582 199.014 534.274C198.424 534.966 197.996 535.781 197.76 536.659C194.846 531.502 192.939 525.838 192.14 519.969C191.84 520.969 191.53 522.069 191.14 523.109C189.06 529.299 186.04 535.289 185.44 541.799C185.153 545.717 185.49 549.656 186.44 553.469L206.3 553.249C206.66 552.709 206.85 552.179 207.08 551.649Z" fill="#F2F2F2"/>
<path d="M220.14 518.629C220.53 519.869 220.95 521.099 221.42 522.319C221.55 522.649 221.69 522.979 221.83 523.319C222.13 523.049 222.44 522.799 222.76 522.549C221.87 521.329 221.01 520.079 220.22 518.779C220.197 518.727 220.171 518.677 220.14 518.629V518.629Z" fill="#F2F2F2"/>
<path d="M363.41 539.432C362.008 533.474 361.049 527.421 360.54 521.322C358.953 506.655 357.366 491.989 355.78 477.322C355.73 476.942 355.69 476.552 355.65 476.172C355.59 476.362 355.54 476.552 355.48 476.742C354.27 480.292 351.87 483.282 349.48 486.202C347.09 489.122 344.1 492.142 340.59 491.282C339.151 490.811 337.846 490.006 336.78 488.932L328.78 482.022C327.2 480.662 325.63 479.302 324.07 477.912C324 487.562 323.78 497.202 323.28 506.842C323.12 509.892 322.87 513.072 321.43 515.732C324.381 524.901 326.017 534.443 326.29 544.072C326.36 546.682 326.29 549.292 326.21 551.902L349.65 551.642H349.79L367.42 551.452C365.95 547.512 364.47 543.532 363.41 539.432Z" fill="#F2F2F2"/>
<path d="M323.81 439.868C324.31 440.488 324.81 441.108 325.32 441.738L322.77 431.838C322.605 430.918 322.236 430.047 321.69 429.288C320.798 428.501 319.785 427.863 318.69 427.398C318.458 427.243 318.234 427.076 318.02 426.898C319.5 428.788 321.28 430.488 322.35 432.648C323.343 434.924 323.841 437.385 323.81 439.868V439.868Z" fill="#F2F2F2"/>
<path d="M352.8 395.97C353.43 402.92 353.8 409.89 354.15 416.86C354.5 423.83 354.86 430.62 355.21 437.5C356.027 432.178 357.264 426.928 358.91 421.8C357.47 419.14 357.22 415.96 357.06 412.91C356.56 403.27 356.34 393.63 356.27 383.98C354.74 385.35 353.19 386.69 351.63 387.98C352.211 390.612 352.602 393.283 352.8 395.97Z" fill="#F2F2F2"/>
<path d="M219.95 467.201C217.59 483.341 215.31 500.201 219.34 515.841C219.63 514.892 220.156 514.032 220.87 513.341C223.53 510.071 224.58 505.801 225.37 501.661C230.23 476.091 227.89 449.901 226.79 423.781L224.66 426.241C223.866 427.051 223.192 427.97 222.66 428.971C222.155 430.159 221.88 431.431 221.85 432.721C221.653 435.787 221.757 438.865 222.16 441.911C223.146 448.607 222.751 455.434 221 461.971C220.526 463.688 220.175 465.435 219.95 467.201V467.201Z" fill="#F2F2F2"/>
<path d="M581.56 549.16L589.4 549.08C585.22 525 591.25 499.15 585.57 475.08C584.68 471.33 583.57 467.4 583.29 463.59C581.29 468.9 579 474.14 578.48 479.77C577.57 489.5 582.15 498.82 583.85 508.45C586.19 521.72 583.02 535.25 581.61 548.65C581.59 548.83 581.58 548.97 581.56 549.16Z" fill="#F2F2F2"/>
<path d="M851.14 537.089C842.06 510.029 851.14 479.869 844.57 452.089C843.06 445.709 840.78 438.819 843.57 432.869L839.4 431.589C839.97 430.279 840.55 428.959 841.13 427.649C840.318 427.237 839.565 426.719 838.89 426.109L835.83 454.319C835.321 460.419 834.361 466.472 832.96 472.429C831.23 479.079 828.42 485.429 826.41 491.979C821.04 509.539 821.63 528.299 824.52 546.529L854.52 546.209C853.42 543.159 852.17 540.149 851.14 537.089Z" fill="#F2F2F2"/>
<path d="M837.11 269.608L837.19 269.328L837.55 268.158C836.692 267.449 835.744 266.857 834.73 266.398C834.498 266.243 834.274 266.076 834.06 265.898C835.05 267.158 836.16 268.328 837.11 269.608Z" fill="#F2F2F2"/>
<path d="M736.14 357.629C736.53 358.869 736.95 360.099 737.42 361.319C737.55 361.649 737.69 361.979 737.83 362.319C738.13 362.049 738.44 361.799 738.76 361.549C737.87 360.329 737.01 359.079 736.22 357.779C736.197 357.727 736.171 357.677 736.14 357.629Z" fill="#F2F2F2"/>
<path d="M859.37 377.66C862.44 361.54 862.64 345.18 862.09 328.75C861.36 329.415 860.487 329.903 859.539 330.175C858.59 330.448 857.591 330.497 856.62 330.32L856.45 330.27C856.206 332.889 855.72 335.48 855 338.01C854.528 339.713 854.177 341.447 853.95 343.2C851.59 359.34 849.31 376.2 853.34 391.84C853.63 390.891 854.156 390.03 854.87 389.34C857.53 386.07 858.58 381.8 859.37 377.66Z" fill="#F2F2F2"/>
<path d="M414.73 550.968C414.73 545.728 414.763 540.485 414.83 535.238C414.676 540.478 414.53 545.722 414.39 550.968H414.73Z" fill="#F2F2F2"/>
<path d="M1037.9 117.16C1037.23 113.394 1036.44 109.69 1035.53 106.05C1025.83 66.8302 1003.12 35.5302 961.53 18.5902C957.964 17.1369 954.257 15.8036 950.41 14.5902C941.658 11.8099 932.714 9.67091 923.65 8.19025C836.41 -6.39975 763.05 0.540245 696.92 13.7002C693.19 14.4302 689.49 15.2002 685.8 15.9802C593.1 35.5702 514.16 65.9203 429.93 63.2703C426.24 63.1603 422.53 62.9803 418.82 62.7403C382.1 60.3003 344.22 51.3103 303.65 32.1903C255.7 9.60025 206.94 17.1902 162.95 44.0902C138.12 59.2502 114.81 80.5702 94.0203 106.09L93.9503 106.17C91.0169 109.77 88.1369 113.437 85.3103 117.17C17.6603 207.05 -19.8997 341.45 10.9103 445.6C12.0169 449.354 13.2169 453.06 14.5103 456.72C23.4103 482.11 36.6503 505.45 54.8103 525.59C65.3477 537.241 78.8624 545.798 93.9003 550.34C96.4803 551.14 99.1103 551.79 101.77 552.34C102.52 539.69 101.65 527.05 97.9603 514.98C95.9603 508.4 93.1403 502.08 91.4103 495.43C90.0084 489.473 89.0492 483.419 88.5403 477.32C86.9536 462.654 85.3669 447.987 83.7803 433.32C82.7803 424.32 81.7803 415.18 82.0503 406.07C82.3229 396.441 83.9592 386.9 86.9103 377.73C85.4703 375.07 85.2203 371.89 85.0603 368.84C84.5603 359.2 84.3403 349.56 84.2703 339.91C82.7103 341.3 81.1403 342.66 79.5603 344.02L71.5103 350.97C70.4444 352.044 69.1385 352.85 67.7003 353.32C64.1903 354.18 61.0803 351.06 58.8103 348.24C56.5403 345.42 54.0503 342.33 52.8103 338.78C51.8617 335.482 51.4929 332.044 51.7203 328.62C51.8003 324.23 52.0203 319.85 52.2503 315.47L54.1403 278.83C54.5003 271.83 54.8603 264.89 55.4903 257.94C55.9403 252.94 56.5803 247.86 59.1503 243.59C63.9803 235.59 74.3403 232.8 83.7503 233.48C83.5157 233.018 83.3861 232.509 83.3705 231.99C83.355 231.472 83.4539 230.956 83.6603 230.48C84.2488 229.587 85.0917 228.89 86.0803 228.48L99.9903 220.97C100.976 220.345 102.09 219.952 103.25 219.82C103.865 219.799 104.475 219.926 105.03 220.19L107.72 218.31C108.321 217.837 108.997 217.468 109.72 217.22C110.623 216.993 111.573 217.039 112.45 217.35C113.128 215.998 113.519 214.521 113.6 213.01C113.542 211.134 113.142 209.283 112.42 207.55C109.213 205.123 106.604 201.993 104.793 198.402C102.981 194.811 102.016 190.852 101.97 186.83C98.9703 185.15 95.1103 184.21 93.8903 180.67C93.0603 178.26 94.0503 175.6 93.7103 173.09C93.046 172.432 92.54 171.632 92.2303 170.75C91.3703 168.26 92.4903 165.48 92.0303 162.88C91.7703 161.45 91.0303 160.05 91.3203 158.63C91.6142 157.622 92.1576 156.703 92.9003 155.96L102.73 144.32C104.9 141.76 107.14 139.13 110.12 137.6C117.26 133.93 125.81 137.6 133.83 137.6C136.52 137.6 139.3 137.18 141.83 138.05C143.651 138.794 145.324 139.858 146.77 141.19L157.77 150.19C161.47 153.19 165.46 156.76 165.82 161.52C165.905 162.964 165.694 164.41 165.2 165.77C166.475 167.405 167.262 169.367 167.47 171.43C167.72 174.73 166.12 177.89 164.28 180.64C161.517 184.741 158.145 188.396 154.28 191.48C153.375 196.226 151.186 200.632 147.95 204.22C148.675 207.708 149.623 211.145 150.79 214.51C150.818 214.568 150.841 214.629 150.86 214.69C151.795 214.744 152.696 215.059 153.46 215.6C154.248 216.19 154.972 216.86 155.62 217.6C155.969 217.052 156.479 216.626 157.08 216.38C158.56 215.79 160.22 216.46 161.67 217.12C166.08 219.12 170.57 221.21 174.16 224.46C175.467 225.648 176.569 227.043 177.42 228.59C182.449 227.889 187.56 229.071 191.77 231.91C199.33 237.09 202.44 246.55 205.07 255.33C207.03 261.904 208.994 268.47 210.96 275.03C213.54 283.65 216.14 292.37 216.74 301.35C217.29 309.52 216.17 317.7 215.05 325.81C213.5 337.04 217.15 349.35 217.2 360.68C217.2 363.59 217.2 366.54 217.13 369.48C221.207 366.962 226.033 365.94 230.78 366.59C231.632 365.043 232.733 363.648 234.04 362.46C237.63 359.21 242.12 357.14 246.53 355.12C247.98 354.46 249.64 353.79 251.12 354.38C251.721 354.626 252.231 355.052 252.58 355.6C253.228 354.86 253.952 354.19 254.74 353.6C255.505 353.059 256.405 352.744 257.34 352.69C257.359 352.629 257.383 352.568 257.41 352.51C258.577 349.145 259.526 345.708 260.25 342.22C257.015 338.632 254.825 334.226 253.92 329.48C250.055 326.396 246.683 322.741 243.92 318.64C242.08 315.89 240.48 312.73 240.73 309.43C240.938 307.367 241.725 305.405 243 303.77C242.507 302.41 242.296 300.964 242.38 299.52C242.74 294.76 246.73 291.2 250.43 288.19L261.43 279.19C262.877 277.858 264.55 276.794 266.37 276.05C268.91 275.18 271.69 275.6 274.37 275.6C282.37 275.6 290.94 271.95 298.08 275.6C301.08 277.13 303.3 279.76 305.47 282.32L315.43 293.97C316.173 294.713 316.716 295.632 317.01 296.64C317.29 298.06 316.56 299.46 316.3 300.89C315.84 303.49 316.96 306.27 316.1 308.76C315.791 309.642 315.284 310.442 314.62 311.1C314.28 313.61 315.27 316.27 314.44 318.68C313.22 322.22 309.38 323.16 306.36 324.84C306.315 328.862 305.349 332.821 303.538 336.412C301.727 340.003 299.118 343.133 295.91 345.56C295.189 347.294 294.789 349.144 294.73 351.02C294.811 352.531 295.203 354.008 295.88 355.36C296.758 355.049 297.707 355.003 298.61 355.23C299.334 355.478 300.01 355.847 300.61 356.32L303.3 358.2C303.855 357.936 304.466 357.809 305.08 357.83C306.24 357.962 307.355 358.355 308.34 358.98L322.22 366.41C322.829 366.72 323.399 367.099 323.92 367.54C324.03 364.85 324.15 362.15 324.29 359.46L326.18 322.82C326.54 315.82 326.9 308.88 327.53 301.93C327.98 296.93 328.62 291.85 331.19 287.58C336.02 279.58 346.38 276.79 355.79 277.47C355.556 277.008 355.426 276.499 355.411 275.98C355.395 275.462 355.494 274.946 355.7 274.47C356.289 273.577 357.132 272.88 358.12 272.47L371.99 264.97C372.976 264.345 374.09 263.952 375.25 263.82C375.865 263.799 376.475 263.926 377.03 264.19L379.72 262.31C380.321 261.837 380.997 261.468 381.72 261.22C382.623 260.993 383.573 261.039 384.45 261.35C385.128 259.998 385.519 258.521 385.6 257.01C385.542 255.134 385.142 253.283 384.42 251.55C381.213 249.123 378.604 245.993 376.792 242.402C374.981 238.811 374.016 234.852 373.97 230.83C370.97 229.15 367.11 228.21 365.89 224.67C365.06 222.26 366.05 219.6 365.71 217.09C365.046 216.432 364.54 215.632 364.23 214.75C363.37 212.26 364.49 209.48 364.03 206.88C363.697 205.753 363.443 204.603 363.27 203.44C362.18 205.495 361.34 207.674 360.77 209.93C359.36 215.6 359.61 221.54 358.77 227.31C358.47 229.31 357.9 231.45 356.21 232.51C354.9 233.32 353.21 233.26 351.8 233.85C349.44 234.85 348.13 237.44 347.8 239.98C347.47 242.52 347.87 245.08 347.87 247.64C347.87 254.33 344.66 261.25 338.82 264.51C331.13 268.8 321.58 265.96 313.27 263.04C316.974 261.704 320.263 259.422 322.81 256.42L313.66 254.6C318.981 252.138 323.902 248.892 328.26 244.97C329.889 243.681 331.168 242.003 331.98 240.09C332.98 237.29 332.05 234.09 332.98 231.28C334.53 226.48 340.42 224.65 343.42 220.6C346.05 217.06 346.14 212.31 346.13 207.9L346.08 191.12C346.08 186.29 346.39 180.73 350.24 177.8C354.53 174.52 360.61 176.39 366.01 176.35C371.7 176.35 377.12 173.99 382.78 173.35C388.12 172.73 397.03 176.48 396.88 180.71C399.853 181.245 402.861 181.559 405.88 181.65C408.57 181.65 411.35 181.23 413.88 182.1C415.701 182.844 417.374 183.908 418.82 185.24L429.82 194.24C433.52 197.24 437.51 200.81 437.82 205.57C437.905 207.014 437.694 208.46 437.2 209.82C438.475 211.455 439.262 213.417 439.47 215.48C439.72 218.78 438.12 221.94 436.28 224.69C433.517 228.791 430.145 232.446 426.28 235.53C425.375 240.276 423.186 244.682 419.95 248.27C420.675 251.758 421.623 255.195 422.79 258.56C422.818 258.618 422.841 258.679 422.86 258.74C423.795 258.794 424.696 259.109 425.46 259.65C426.248 260.24 426.972 260.91 427.62 261.65C427.969 261.102 428.479 260.676 429.08 260.43C430.56 259.84 432.22 260.51 433.67 261.17C437.559 262.779 441.249 264.829 444.67 267.28C444.67 267.07 444.67 266.87 444.67 266.67C444.75 262.28 444.97 257.9 445.2 253.52L447.09 216.88C447.45 209.88 447.81 202.94 448.44 195.99C448.89 190.99 449.53 185.91 452.1 181.64C456.93 173.64 467.29 170.85 476.7 171.53C476.466 171.068 476.336 170.559 476.321 170.04C476.305 169.522 476.404 169.006 476.61 168.53C477.199 167.637 478.042 166.94 479.03 166.53L492.99 158.97C493.976 158.345 495.09 157.952 496.25 157.82C496.865 157.799 497.475 157.926 498.03 158.19L500.72 156.31C501.321 155.837 501.997 155.468 502.72 155.22C503.623 154.993 504.573 155.039 505.45 155.35C506.128 153.998 506.519 152.521 506.6 151.01C506.542 149.134 506.142 147.283 505.42 145.55C502.213 143.123 499.604 139.993 497.793 136.402C495.981 132.811 495.016 128.852 494.97 124.83C491.97 123.15 488.11 122.21 486.89 118.67C486.06 116.26 487.05 113.6 486.71 111.09C486.046 110.432 485.54 109.632 485.23 108.75C484.37 106.26 485.49 103.48 485.03 100.88C484.77 99.4502 484.03 98.0502 484.32 96.6302C484.614 95.6216 485.158 94.7033 485.9 93.9602L495.73 82.3203C497.9 79.7603 500.14 77.1303 503.12 75.6003C510.26 71.9303 518.81 75.6003 526.83 75.6003C529.52 75.6003 532.3 75.1802 534.83 76.0502C536.651 76.7943 538.324 77.8577 539.77 79.1902L550.77 88.1902C554.47 91.1902 558.46 94.7602 558.77 99.5202C558.855 100.964 558.644 102.41 558.15 103.77C559.425 105.405 560.212 107.367 560.42 109.43C560.67 112.73 559.07 115.89 557.23 118.64C554.467 122.741 551.095 126.396 547.23 129.48C546.325 134.226 544.136 138.632 540.9 142.22C541.625 145.708 542.574 149.145 543.74 152.51C543.768 152.568 543.791 152.629 543.81 152.69C544.745 152.744 545.646 153.059 546.41 153.6C547.198 154.19 547.922 154.86 548.57 155.6C548.919 155.052 549.429 154.626 550.03 154.38C551.51 153.79 553.17 154.46 554.62 155.12C559.03 157.12 563.52 159.21 567.11 162.46C568.417 163.648 569.519 165.043 570.37 166.59C575.399 165.889 580.51 167.071 584.72 169.91C592.28 175.09 595.39 184.55 598.02 193.33C599.98 199.904 601.944 206.47 603.91 213.03C606.49 221.65 609.09 230.37 609.69 239.35C610.2 246.99 609.25 254.63 608.21 262.22C608.46 261.96 608.71 261.71 608.99 261.46C612.58 258.21 617.07 256.14 621.48 254.12C622.93 253.46 624.59 252.79 626.07 253.38C626.671 253.626 627.181 254.052 627.53 254.6C628.178 253.86 628.902 253.19 629.69 252.6C630.455 252.059 631.356 251.744 632.29 251.69C632.309 251.629 632.333 251.568 632.36 251.51C633.527 248.145 634.476 244.708 635.2 241.22C631.965 237.632 629.775 233.226 628.87 228.48C625.005 225.396 621.633 221.741 618.87 217.64C617.03 214.89 615.43 211.73 615.68 208.43C615.888 206.367 616.675 204.405 617.95 202.77C617.457 201.41 617.246 199.964 617.33 198.52C617.69 193.76 621.68 190.2 625.33 187.19L636.33 178.19C637.777 176.858 639.45 175.794 641.27 175.05C643.81 174.18 646.59 174.6 649.27 174.6C652.289 174.509 655.297 174.195 658.27 173.66C658.12 169.43 667.03 165.66 672.37 166.3C678.02 166.95 683.45 169.3 689.14 169.3C694.54 169.3 700.62 167.47 704.91 170.75C708.76 173.68 709.08 179.24 709.07 184.07L709.02 200.85C709.02 205.26 709.1 210.01 711.73 213.55C714.59 217.41 720.06 219.25 721.91 223.55C724.17 217.74 727.23 212.35 732.29 208.88C736.5 206.041 741.611 204.859 746.64 205.56C747.492 204.013 748.593 202.618 749.9 201.43C753.49 198.18 757.98 196.11 762.39 194.09C763.84 193.43 765.5 192.76 766.98 193.35C767.581 193.596 768.092 194.022 768.44 194.57C769.088 193.83 769.812 193.16 770.6 192.57C771.365 192.029 772.265 191.714 773.2 191.66C773.219 191.599 773.243 191.538 773.27 191.48C774.437 188.115 775.386 184.678 776.11 181.19C772.875 177.602 770.685 173.196 769.78 168.45C765.915 165.366 762.543 161.711 759.78 157.61C757.94 154.86 756.34 151.7 756.59 148.4C756.798 146.337 757.585 144.375 758.86 142.74C758.367 141.38 758.156 139.934 758.24 138.49C758.6 133.73 762.59 130.17 766.24 127.16L777.24 118.16C778.687 116.828 780.36 115.764 782.18 115.02C784.72 114.15 787.5 114.57 790.18 114.57C793.199 114.479 796.208 114.165 799.18 113.63C799.03 109.4 807.94 105.63 813.28 106.27C818.93 106.92 824.36 109.27 830.05 109.27C835.45 109.27 841.53 107.44 845.82 110.72C849.67 113.65 849.99 119.21 849.98 124.04L849.93 140.82C849.93 145.23 850.01 149.98 852.64 153.52C855.64 157.57 861.53 159.4 863.08 164.2C863.98 167.03 863.08 170.2 864.08 173.01C864.954 174.981 866.325 176.691 868.06 177.97C870.296 179.994 872.687 181.839 875.21 183.49C875.621 182.163 876.26 180.917 877.1 179.81C876.607 178.45 876.396 177.004 876.48 175.56C876.84 170.8 880.83 167.24 884.48 164.23L895.48 155.23C896.927 153.898 898.6 152.834 900.42 152.09C902.96 151.22 905.74 151.64 908.42 151.64C916.42 151.64 924.99 147.99 932.13 151.64C935.13 153.17 937.35 155.8 939.52 158.36L949.35 170C950.093 170.743 950.636 171.662 950.93 172.67C951.21 174.09 950.48 175.49 950.22 176.92C949.76 179.52 950.88 182.3 950.02 184.79C949.711 185.672 949.205 186.472 948.54 187.13C948.2 189.64 949.19 192.3 948.36 194.71C947.14 198.25 943.3 199.19 940.28 200.87C940.235 204.892 939.269 208.851 937.458 212.442C935.647 216.033 933.038 219.163 929.83 221.59C929.109 223.323 928.709 225.174 928.65 227.05C928.731 228.561 929.123 230.038 929.8 231.39C930.678 231.079 931.627 231.033 932.53 231.26C933.254 231.508 933.93 231.877 934.53 232.35L937.22 234.23C937.775 233.966 938.386 233.839 939 233.86C940.16 233.992 941.275 234.385 942.26 235.01L956.14 242.44C957.129 242.85 957.972 243.547 958.56 244.44C958.767 244.916 958.866 245.432 958.85 245.95C958.834 246.469 958.705 246.978 958.47 247.44C967.88 246.76 978.24 249.55 983.07 257.55C985.64 261.82 986.28 266.94 986.73 271.9C987.36 278.85 987.73 285.82 988.08 292.79L989.97 329.43C990.2 333.81 990.42 338.19 990.5 342.58C990.728 346.004 990.359 349.442 989.41 352.74C988.2 356.29 985.8 359.28 983.41 362.2C981.02 365.12 978.03 368.14 974.52 367.28C973.082 366.81 971.776 366.004 970.71 364.93L962.66 358.02C961.08 356.66 959.51 355.3 957.95 353.91C957.88 363.56 957.66 373.2 957.16 382.84C957 385.89 956.75 389.07 955.31 391.73C958.261 400.9 959.898 410.441 960.17 420.07C960.245 427.924 959.804 435.774 958.85 443.57C959.69 441.78 960.53 439.99 961.38 438.16C1004.85 345.31 1054.96 211.49 1037.9 117.16Z" fill="#C6D0E0"/>
<path d="M85.55 293.838L83 303.738C83.5 303.108 84 302.488 84.51 301.868C84.4663 299.388 84.9503 296.927 85.93 294.648C87 292.488 88.78 290.788 90.26 288.898C90.0452 289.076 89.8216 289.243 89.59 289.398C88.4949 289.863 87.482 290.501 86.59 291.288C86.0577 292.05 85.7024 292.922 85.55 293.838V293.838Z" fill="#F2F2F2"/>
<path d="M698.81 338.868C699.31 339.488 699.81 340.108 700.32 340.738L697.77 330.838C697.605 329.918 697.236 329.047 696.69 328.288C695.798 327.501 694.785 326.863 693.69 326.398C693.458 326.243 693.234 326.076 693.02 325.898C694.5 327.788 696.28 329.488 697.35 331.648C698.343 333.924 698.841 336.385 698.81 338.868V338.868Z" fill="#F2F2F2"/>
<path d="M855.83 399.309C856.13 399.039 856.44 398.789 856.76 398.539C855.87 397.319 855.01 396.069 854.22 394.769C854.197 394.72 854.17 394.673 854.14 394.629C854.53 395.869 854.95 397.099 855.42 398.319C855.55 398.649 855.66 398.969 855.83 399.309Z" fill="#F2F2F2"/>
<path d="M595.14 417.629C595.53 418.869 595.95 420.099 596.42 421.319C596.55 421.649 596.69 421.979 596.83 422.319C597.13 422.049 597.44 421.799 597.76 421.549C596.87 420.329 596.01 419.079 595.22 417.779C595.197 417.727 595.171 417.677 595.14 417.629Z" fill="#F2F2F2"/>
<path d="M681.36 223.848C681.315 227.871 680.35 231.829 678.538 235.42C676.727 239.012 674.118 242.141 670.91 244.568C670.189 246.302 669.789 248.152 669.73 250.028C669.811 251.539 670.203 253.016 670.88 254.368C671.758 254.057 672.708 254.012 673.61 254.238C674.334 254.487 675.01 254.855 675.61 255.328L678.3 257.208C678.856 256.944 679.466 256.818 680.08 256.838C681.24 256.97 682.355 257.363 683.34 257.988L697.22 265.418C698.209 265.828 699.052 266.525 699.64 267.418C699.847 267.894 699.946 268.41 699.93 268.928C699.915 269.447 699.785 269.956 699.55 270.418C702.527 270.197 705.519 270.341 708.46 270.848C709.526 265.264 710.912 259.744 712.61 254.318C709.289 250.523 707.474 245.642 707.51 240.598C707.51 238.038 707.92 235.468 707.58 232.938C707.24 230.408 705.93 227.778 703.58 226.808C702.15 226.218 700.48 226.278 699.17 225.468C697.48 224.408 696.91 222.248 696.61 220.268C695.74 214.498 695.99 208.558 694.61 202.888C694.041 200.633 693.201 198.454 692.11 196.398C691.937 197.561 691.683 198.711 691.35 199.838C690.89 202.438 692.01 205.218 691.15 207.708C690.841 208.59 690.335 209.391 689.67 210.048C689.33 212.558 690.32 215.218 689.49 217.628C688.22 221.228 684.38 222.168 681.36 223.848Z" fill="#F2F2F2"/>
<path d="M735.95 306.201C733.59 322.341 731.31 339.201 735.34 354.841C735.63 353.892 736.156 353.032 736.87 352.341C739.53 349.071 740.58 344.801 741.37 340.661C746.23 315.091 743.89 288.901 742.79 262.781L740.66 265.241C739.866 266.051 739.192 266.97 738.66 267.971C738.155 269.159 737.88 270.431 737.85 271.721C737.653 274.787 737.757 277.865 738.16 280.911C739.146 287.607 738.751 294.434 737 300.971C736.526 302.688 736.175 304.435 735.95 306.201V306.201Z" fill="#F2F2F2"/>
<path d="M720.73 388.97C720.029 389.555 719.207 389.976 718.323 390.203C717.439 390.43 716.516 390.456 715.62 390.28C714.182 389.81 712.876 389.004 711.81 387.93L703.81 381.02C702.23 379.66 700.66 378.3 699.1 376.91C699.03 386.56 698.81 396.2 698.31 405.84C698.15 408.89 697.9 412.07 696.46 414.73C699.411 423.9 701.047 433.441 701.32 443.07C701.56 452.18 700.58 461.27 699.59 470.32C698.01 484.987 696.423 499.653 694.83 514.32C694.321 520.419 693.362 526.473 691.96 532.43C690.58 537.74 688.51 542.84 686.71 548.02L696.92 547.91L709.92 547.77H711.52L733.52 547.53C733.525 547.51 733.525 547.49 733.52 547.47C735.22 537.84 739.8 528.47 738.89 518.79C738.29 512.28 735.27 506.29 733.19 500.1C724.11 473.04 733.19 442.88 726.62 415.1C725.11 408.72 722.83 401.83 725.62 395.88L721.45 394.6C722.02 393.29 722.6 391.97 723.18 390.66C722.286 390.218 721.461 389.649 720.73 388.97V388.97Z" fill="#F2F2F2"/>
<path d="M640.49 528.25C640.53 535.01 640.574 541.77 640.62 548.53H641.06L640.49 528.25Z" fill="#F2F2F2"/>
<path d="M899.49 505.25C899.557 515.45 899.624 525.65 899.69 535.85L900.35 535.47C900.057 525.403 899.77 515.33 899.49 505.25Z" fill="#F2F2F2"/>
<path d="M875.25 189.102L873.56 189.442C874.505 190.543 875.556 191.548 876.7 192.442C876.096 191.384 875.61 190.264 875.25 189.102V189.102Z" fill="#F2F2F2"/>
<path d="M781.49 468.25L781.79 512.31C781.933 515.874 781.709 519.442 781.12 522.96C780.52 525.89 779.42 528.7 778.79 531.63C777.9 535.83 778.01 540.16 778.05 544.45C778.05 545.32 778.05 546.18 778.05 547.04L783.72 546.98C782.98 520.74 782.237 494.497 781.49 468.25Z" fill="#F2F2F2"/>
<path d="M957.81 315.868C958.31 316.488 958.81 317.108 959.32 317.738L956.77 307.838C956.605 306.918 956.236 306.047 955.69 305.288C954.798 304.501 953.785 303.863 952.69 303.398C952.458 303.243 952.234 303.076 952.02 302.898C953.5 304.788 955.279 306.488 956.349 308.648C957.343 310.924 957.841 313.385 957.81 315.868V315.868Z" fill="#F2F2F2"/>
<path d="M822.36 163.848C822.315 167.871 821.35 171.829 819.538 175.42C817.727 179.012 815.118 182.141 811.91 184.568C811.189 186.302 810.789 188.152 810.73 190.028C810.811 191.539 811.203 193.016 811.88 194.368C812.758 194.057 813.708 194.012 814.61 194.238C815.334 194.487 816.01 194.855 816.61 195.328L819.3 197.208C819.856 196.944 820.466 196.818 821.08 196.838C822.24 196.97 823.355 197.363 824.34 197.988L838.22 205.418C839.209 205.828 840.052 206.525 840.64 207.418C840.847 207.894 840.946 208.41 840.93 208.928C840.915 209.447 840.785 209.956 840.55 210.418C849.96 209.738 860.32 212.528 865.15 220.528C867.72 224.798 868.36 229.918 868.81 234.878C868.89 235.798 868.96 236.708 869.03 237.618C872.46 234.818 876.56 232.908 880.6 231.058C882.05 230.398 883.71 229.728 885.19 230.318C885.792 230.564 886.302 230.991 886.65 231.538C887.299 230.798 888.023 230.128 888.81 229.538C889.575 228.998 890.476 228.682 891.41 228.628C891.429 228.567 891.453 228.507 891.48 228.448C892.647 225.083 893.596 221.646 894.32 218.158C891.085 214.571 888.895 210.164 887.99 205.418C884.956 202.982 882.223 200.193 879.85 197.108C872.38 199.528 864.26 201.208 857.56 197.468C851.72 194.208 848.56 187.288 848.56 180.598C848.56 178.038 848.97 175.468 848.63 172.938C848.29 170.408 846.98 167.778 844.63 166.808C843.2 166.218 841.53 166.278 840.22 165.468C838.53 164.408 837.96 162.248 837.66 160.268C836.79 154.498 837.04 148.558 835.66 142.888C835.09 140.633 834.251 138.454 833.16 136.398C832.987 137.561 832.733 138.711 832.4 139.838C831.94 142.438 833.06 145.218 832.2 147.708C831.891 148.59 831.385 149.391 830.72 150.048C830.38 152.558 831.37 155.218 830.54 157.628C829.22 161.228 825.38 162.168 822.36 163.848Z" fill="#F2F2F2"/>
<path d="M253.38 346H804.78C809.787 346 814.59 347.989 818.13 351.53C821.671 355.071 823.66 359.873 823.66 364.88V431.21H234.5V364.9C234.497 362.419 234.984 359.962 235.931 357.669C236.879 355.376 238.269 353.292 240.023 351.537C241.776 349.782 243.858 348.389 246.15 347.439C248.442 346.489 250.899 346 253.38 346V346Z" fill="#3F3D56"/>
<path opacity="0.1" d="M253.38 346H804.78C809.787 346 814.59 347.989 818.13 351.53C821.671 355.071 823.66 359.873 823.66 364.88V431.21H234.5V364.9C234.497 362.419 234.984 359.962 235.931 357.669C236.879 355.376 238.269 353.292 240.023 351.537C241.776 349.782 243.858 348.389 246.15 347.439C248.442 346.489 250.899 346 253.38 346V346Z" fill="black"/>
<path d="M703.76 423.32V547L680.01 547.26L678.33 547.28L657.2 547.51H656.55L641.74 547.67L614.8 547.97L526.32 548.93L513.91 549.06L489.54 549.33L488.42 549.34L467.62 549.57L410.06 550.19L396.53 550.34L354.4 550.8V423.32H703.76Z" fill="#3F3D56"/>
<path opacity="0.1" d="M703.76 423.32V547L680.01 547.26L678.33 547.28L657.2 547.51H656.55L641.74 547.67L614.8 547.97L526.32 548.93L513.91 549.06L489.54 549.33L488.42 549.34L467.62 549.57L410.06 550.19L396.53 550.34L354.4 550.8V423.32H703.76Z" fill="black"/>
<path d="M234.5 422.711H823.66V437.261C823.66 442.441 821.602 447.408 817.94 451.071C814.277 454.733 809.31 456.791 804.13 456.791H255.23C249.732 456.791 244.459 454.607 240.572 450.719C236.684 446.832 234.5 441.559 234.5 436.061V422.711Z" fill="#3F3D56"/>
<path d="M412.83 439.748C436.026 439.748 454.83 435.661 454.83 430.618C454.83 425.576 436.026 421.488 412.83 421.488C389.634 421.488 370.83 425.576 370.83 430.618C370.83 435.661 389.634 439.748 412.83 439.748Z" fill="#6C63FF"/>
<path d="M409.39 431.641L408.56 388.171C408.38 378.451 408.73 367.431 415.96 360.921C420.53 356.811 427.39 355.041 430.26 349.611C431.82 346.611 431.85 343.141 431.84 339.801C431.84 320.068 431.803 300.341 431.73 280.621" stroke="#6C63FF" stroke-width="6" stroke-miterlimit="10"/>
<path d="M432.22 262.031H428.74C424.322 262.031 420.74 265.613 420.74 270.031V291.771C420.74 296.19 424.322 299.771 428.74 299.771H432.22C436.639 299.771 440.22 296.19 440.22 291.771V270.031C440.22 265.613 436.639 262.031 432.22 262.031Z" fill="#6C63FF"/>
<path d="M585.37 362.629C578.97 355.159 572.14 348.079 565.31 340.999L551.46 326.629L538.88 313.579L478.35 250.799C470.99 243.159 463.27 235.279 453.35 231.539C443.43 227.799 430.59 229.469 424.58 238.219C423.568 239.583 422.842 241.138 422.446 242.789C422.049 244.44 421.989 246.154 422.27 247.829C422.97 251.079 425.27 253.729 427.76 255.979C439.56 266.759 455.48 271.529 469.57 279.079C474.305 281.435 478.634 284.535 482.39 288.259C485.462 291.747 488.145 295.559 490.39 299.629L525.78 358.679C527.971 362.542 530.473 366.221 533.26 369.679C535.52 372.339 538.11 374.679 540.5 377.249C546.15 383.249 550.59 390.359 556.02 396.599C563.57 405.299 572.9 412.239 582.15 419.109C584.06 420.529 586.15 421.999 588.5 422.109C591.61 422.269 594.3 420.109 596.63 418.039C600.42 414.689 608.12 409.879 610.2 405.219C612.03 401.089 608.8 396.919 606.85 393.279C600.807 382.323 593.606 372.047 585.37 362.629V362.629Z" fill="#FBBEBE"/>
<path d="M614.8 547.972L526.32 548.972L513.91 549.102L489.54 549.372H488.42L467.62 549.602C469.447 543.572 471.802 537.716 474.66 532.102C476.494 528.588 478.632 525.242 481.05 522.102C485.51 522.502 489.96 522.862 494.42 523.222C504.753 524.028 515.087 524.765 525.42 525.432C551.58 527.152 577.69 528.632 603.94 530.972C605.71 531.132 607.6 531.342 608.94 532.492C609.736 533.282 610.359 534.228 610.77 535.272C612.608 539.332 613.961 543.594 614.8 547.972V547.972Z" fill="#3F3D56"/>
<path d="M553.34 305.912C576.14 298.652 587.06 294.562 607.34 281.792C602.91 282.532 609.34 277.172 604.91 276.562C600.48 275.952 596.02 273.762 593.76 269.882C592.29 267.362 591.86 264.392 591.47 261.502L589.31 245.672C589.57 247.552 548.02 247.792 547.72 259.502C547.56 265.622 551.91 272.612 553.04 278.672C554.709 287.667 554.811 296.882 553.34 305.912V305.912Z" fill="#FBBEBE"/>
<path opacity="0.1" d="M553.34 305.912C576.14 298.652 587.06 294.562 607.34 281.792C602.91 282.532 609.34 277.172 604.91 276.562C600.48 275.952 596.02 273.762 593.76 269.882C592.29 267.362 591.86 264.392 591.47 261.502L589.31 245.672C589.57 247.552 548.02 247.792 547.72 259.502C547.56 265.622 551.91 272.612 553.04 278.672C554.709 287.667 554.811 296.882 553.34 305.912V305.912Z" fill="black"/>
<path d="M646.73 448.889C646.73 451.529 646.73 454.159 646.6 456.789C646.1 468.089 644.3 479.349 643.19 490.619C641.31 509.619 641.39 528.619 641.74 547.669L614.8 547.959L526.32 548.959L513.91 549.089L489.54 549.359C489.31 548.819 489.06 548.289 488.79 547.779C488.794 547.756 488.794 547.732 488.79 547.709C485.57 541.459 479.72 537.109 474.7 532.129C472.277 529.858 470.181 527.264 468.47 524.419C479.47 505.479 489.58 485.759 496.82 465.069C497.82 462.319 498.68 459.539 499.82 456.819C500.541 454.954 501.393 453.143 502.37 451.399C504.14 448.339 506.37 445.519 507.67 442.209C508.639 439.274 509.158 436.209 509.21 433.119C509.25 432.499 509.28 431.879 509.3 431.259C509.42 428.592 509.47 425.955 509.45 423.349C509.45 423.139 509.45 422.939 509.45 422.739C509.45 419.572 509.336 416.412 509.11 413.259C508.62 406.169 507.68 399.049 508.55 391.999C510.19 378.719 518.03 367.229 523.63 354.999C524.17 353.839 524.69 352.689 525.17 351.519C525.92 349.719 526.61 347.879 527.27 346.029C531.04 335.369 533.83 324.109 540.73 315.439C541.31 314.699 541.95 313.969 542.6 313.259C545.5 310.159 549.04 307.449 550.75 303.569C552.46 299.689 552.96 294.759 548.84 293.769C550.766 292.395 552.6 291.109 554.34 289.909C567.81 280.649 576.44 276.339 594.34 272.399C594.73 272.309 595.12 272.239 595.51 272.169C596.646 271.918 597.823 271.918 598.96 272.169C600.144 272.543 601.25 273.133 602.22 273.909C613.05 281.509 623.22 287.369 627.72 299.809C629.29 304.139 634.27 311.099 635.02 315.639C636.8 326.369 641.43 336.049 644.57 346.069C646.588 352.001 647.632 358.222 647.66 364.489C647.42 382.039 644.01 399.489 644.51 417.019C644.57 418.919 644.67 420.819 644.8 422.709C644.8 422.909 644.8 423.119 644.8 423.319C644.98 425.959 645.23 428.599 645.47 431.229C646.04 437.109 646.66 442.969 646.73 448.889Z" fill="#565171"/>
<path d="M564.83 405.079C564.83 405.199 564.83 405.339 564.83 405.459C564.6 409.149 564.38 412.849 564.05 416.549C564.05 417.189 563.94 417.839 563.88 418.499C563.74 419.899 563.6 421.309 563.43 422.709C563.43 422.909 563.43 423.109 563.36 423.319C563.04 425.969 562.65 428.609 562.15 431.229C561.65 433.849 561.03 436.609 560.28 439.229C558.57 445.159 556.2 450.889 554.28 456.759C553.64 458.759 553.04 460.759 552.54 462.759C551.7 466.159 551.14 469.609 550.15 472.959C548.764 477.191 547.031 481.301 544.97 485.249L525.45 525.359C521.91 532.626 518.37 539.889 514.83 547.149C514.54 547.759 514.24 548.369 513.94 548.989L489.57 549.259H488.45C488.58 548.719 488.7 548.199 488.82 547.669C490.707 539.489 492.59 531.312 494.47 523.139C496.35 514.966 498.197 506.909 500.01 498.969C501.344 493.076 502.7 487.186 504.08 481.299C505.56 474.819 507.05 468.332 508.55 461.839C508.94 460.149 509.33 458.469 509.71 456.779C511.55 448.889 513.45 441.009 515.71 433.239C515.9 432.569 516.11 431.889 516.3 431.239C517.12 428.579 517.97 425.939 518.89 423.329C518.95 423.119 519.02 422.909 519.09 422.719C521.305 416.29 523.917 410.004 526.91 403.899C526.97 403.749 527.04 403.629 527.11 403.479C527.18 403.329 527.11 403.479 527.11 403.479C527.94 401.799 528.82 400.139 529.72 398.479C531.72 394.869 533.42 389.879 537.89 389.159C541.89 388.519 547.78 390.759 552.51 392.399C553.8 392.849 554.98 393.239 556.03 393.529C559.03 394.359 562.31 395.429 563.87 398.119C565.1 400.159 564.98 402.709 564.83 405.079Z" fill="#FBBEBE"/>
<path opacity="0.1" d="M541.849 322.059C536.849 327.149 533.959 333.979 531.779 340.799C525.475 360.543 523.791 381.471 526.859 401.969C527.199 404.179 527.729 406.619 529.579 407.889C531.659 409.319 534.669 408.559 536.579 406.839C538.489 405.119 539.409 402.669 540.339 400.319C541.969 404.189 543.689 408.179 546.739 411.069C553.069 417.069 563.219 416.749 570.529 421.519C580.628 400.829 589.516 379.57 597.149 357.849C598.481 354.549 599.307 351.066 599.599 347.519C599.626 344.324 599.018 341.156 597.81 338.199C593.81 327.789 584.49 319.789 573.81 316.699C563.56 313.729 549.729 314.099 541.849 322.059Z" fill="black"/>
<path d="M540.66 319.619C535.66 324.709 532.77 331.549 530.58 338.359C524.27 358.112 522.59 379.052 525.67 399.559C526 401.769 526.54 404.209 528.38 405.469C530.46 406.909 533.47 406.139 535.33 404.469C537.19 402.799 538.17 400.309 539.09 397.949C540.73 401.819 542.44 405.809 545.49 408.709C551.82 414.709 561.97 414.389 569.29 419.149C579.385 398.458 588.27 377.199 595.9 355.479C597.241 352.184 598.067 348.704 598.35 345.159C598.381 341.96 597.773 338.788 596.56 335.829C592.56 325.419 583.24 317.429 572.56 314.329C562.34 311.299 548.51 311.659 540.66 319.619Z" fill="#565171"/>
<path d="M560.73 271.759C584.257 271.759 603.33 252.686 603.33 229.159C603.33 205.631 584.257 186.559 560.73 186.559C537.203 186.559 518.13 205.631 518.13 229.159C518.13 252.686 537.203 271.759 560.73 271.759Z" fill="#FBBEBE"/>
<path d="M518.19 209.97C520.907 206.879 524.604 204.817 528.66 204.13C528.3 208.46 531.97 212.13 535.92 213.97C539.87 215.81 544.31 216.38 548.2 218.3C555.14 221.72 560.41 229.25 568.14 229.53C570.82 229.62 574.14 229.03 575.66 231.21C576.231 232.183 576.535 233.291 576.54 234.42L577.28 242.5C579.42 243.75 582.03 242.29 584.44 241.73C586.211 241.32 588.062 241.416 589.781 242.006C591.5 242.596 593.019 243.656 594.166 245.067C595.312 246.478 596.039 248.182 596.264 249.986C596.49 251.789 596.204 253.62 595.44 255.27C598.571 255.717 601.764 255.403 604.748 254.356C607.732 253.308 610.419 251.557 612.583 249.251C614.747 246.944 616.324 244.151 617.18 241.106C618.036 238.062 618.146 234.856 617.5 231.76C617.004 230.139 616.744 228.455 616.73 226.76C617.04 222.9 620.73 220.35 622.85 217.11C625.78 212.61 625.56 206.63 623.6 201.63C621.64 196.63 618.18 192.4 614.77 188.26L602.66 173.54C597.07 166.76 590.42 159.42 581.66 158.97C575.45 158.66 569.61 161.97 563.42 162.55C554.42 163.4 544.97 158.55 536.61 161.94C530.61 164.37 527.05 170.34 523.87 175.94C521.21 180.61 518.52 185.37 517.41 190.62C515.6 199.16 518.16 208.07 517.18 216.74L518.19 209.97Z" fill="#3F3D56"/>
<path d="M26.8799 484.971C28.8799 483.661 30.8799 482.431 32.7899 481.231C33.6899 480.671 34.5799 480.091 35.4599 479.481C39.7352 476.592 43.7295 473.308 47.3899 469.671C47.6499 469.431 47.9099 469.161 48.1699 468.901L48.3499 468.721C50.3074 466.886 51.9256 464.719 53.1299 462.321C54.7099 458.801 54.6699 454.801 54.5699 450.951C54.3499 442.784 54.0166 434.618 53.5699 426.451C53.3999 423.301 53.1999 420.151 52.9899 417.001C52.8899 415.481 52.7799 414.001 52.6699 412.461" stroke="#3F3D56" stroke-width="4" stroke-miterlimit="10"/>
<path d="M67.1702 411.71C67.0639 409.359 66.3668 407.073 65.1433 405.063C63.9198 403.053 62.2095 401.384 60.1702 400.21L57.0302 406.43L57.1302 398.9C54.2857 398.055 51.2462 398.136 48.4505 399.13C45.6548 400.125 43.2475 401.982 41.576 404.434C39.9044 406.886 39.0552 409.806 39.1508 412.771C39.2464 415.737 40.282 418.596 42.108 420.935C43.9339 423.274 46.4559 424.973 49.3099 425.785C52.1639 426.598 55.2022 426.483 57.9864 425.456C60.7706 424.43 63.1567 422.545 64.8002 420.074C66.4437 417.604 67.2596 414.675 67.1302 411.71H67.1702Z" fill="#6C63FF"/>
<path d="M42.8197 495.401L36.2397 500.751C33.173 496.084 30.3197 491.301 27.6797 486.401C28.1168 486.332 28.5575 486.288 28.9997 486.271C31.9749 486.124 34.9193 486.931 37.4047 488.573C39.8902 490.215 41.7871 492.607 42.8197 495.401V495.401Z" fill="#6C63FF"/>
<path d="M43.6599 500.301C43.6564 502.528 43.1216 504.722 42.0999 506.701C41.8512 507.192 41.5706 507.666 41.2599 508.121L40.3599 506.861C39.1899 505.211 38.0399 503.551 36.9199 501.861L43.6599 500.301Z" fill="#6C63FF"/>
<path d="M35.2101 479.458C31.7549 479.652 28.3501 478.56 25.6528 476.392C22.9555 474.224 21.1568 471.134 20.6038 467.717C20.0508 464.301 20.7826 460.801 22.6582 457.893C24.5337 454.984 27.42 452.874 30.7601 451.968L30.6801 457.748L33.8601 451.458C35.7023 451.368 37.5441 451.643 39.2798 452.267C41.0155 452.891 42.6107 453.852 43.9739 455.094C45.3371 456.336 46.4414 457.836 47.2233 459.506C48.0052 461.177 48.4493 462.985 48.5301 464.828C48.6122 466.448 48.4091 468.069 47.9301 469.618C47.0718 472.363 45.3919 474.778 43.1172 476.538C40.8424 478.298 38.0825 479.317 35.2101 479.458V479.458Z" fill="#6C63FF"/>
<path d="M69.2803 456.779C67.1245 456.861 64.979 456.443 63.0112 455.559C61.0434 454.675 59.3065 453.348 57.9362 451.682C56.5658 450.016 55.5991 448.055 55.1114 445.954C54.6238 443.852 54.6283 441.667 55.1248 439.567C55.6213 437.468 56.5962 435.512 57.9735 433.851C59.3508 432.191 61.0932 430.871 63.0647 429.995C65.0362 429.119 67.1835 428.711 69.3389 428.801C71.4943 428.892 73.5996 429.48 75.4903 430.519L73.0103 437.309L78.1103 432.419C80.8434 434.922 82.4724 438.407 82.6403 442.109C82.7069 443.406 82.5891 444.705 82.2903 445.969C81.5975 448.943 79.9513 451.609 77.6024 453.561C75.2536 455.513 72.3311 456.643 69.2803 456.779V456.779Z" fill="#6C63FF"/>
<path opacity="0.1" d="M65.2805 415.45C62.0405 415.81 58.8905 416.82 55.6405 417.02C52.3905 417.22 48.8205 416.44 46.7605 413.91C45.6605 412.55 45.1005 410.83 44.1705 409.35C43.2823 407.965 42.0663 406.822 40.6305 406.02C39.7817 407.79 39.3149 409.719 39.2603 411.682C39.2057 413.645 39.5646 415.597 40.3137 417.412C41.0628 419.227 42.1853 420.865 43.6084 422.217C45.0314 423.57 46.7231 424.609 48.5736 425.265C50.4241 425.922 52.392 426.182 54.3495 426.028C56.307 425.875 58.2104 425.311 59.9359 424.374C61.6614 423.437 63.1705 422.148 64.3652 420.59C65.5599 419.031 66.4135 417.239 66.8705 415.33C66.3405 415.36 65.8105 415.39 65.2805 415.45Z" fill="black"/>
<path opacity="0.1" d="M69.2797 456.781C66.8592 456.904 64.4483 456.396 62.2829 455.308C60.1174 454.22 58.2716 452.588 56.9261 450.572C55.5806 448.556 54.7814 446.225 54.6067 443.808C54.4321 441.391 54.888 438.97 55.9298 436.781C57.0459 437.531 58.0041 438.492 58.7497 439.611C59.7497 441.121 60.3597 442.861 61.5297 444.251C63.7197 446.821 67.4497 447.661 70.8397 447.501C74.2297 447.341 77.4997 446.391 80.8397 446.081C81.3097 446.081 81.7798 446.001 82.2598 445.991C81.5646 448.957 79.9212 451.615 77.5787 453.562C75.2362 455.51 72.3226 456.64 69.2797 456.781V456.781Z" fill="black"/>
<path opacity="0.1" d="M35.2099 479.459C32.8119 479.581 30.423 479.083 28.2727 478.015C26.1224 476.947 24.283 475.343 22.9313 473.359C21.5796 471.374 20.7609 469.076 20.554 466.684C20.3471 464.291 20.7589 461.886 21.7499 459.699C22.9166 460.457 23.9336 461.423 24.7499 462.549C25.8399 464.089 26.5199 465.859 27.7499 467.279C30.1199 469.919 34.0999 470.849 37.6799 470.759C41.2599 470.669 44.5099 469.829 47.9599 469.569C47.1083 472.328 45.4276 474.757 43.1462 476.527C40.8649 478.297 38.0938 479.321 35.2099 479.459V479.459Z" fill="black"/>
<path d="M42.1404 506.699C41.8917 507.19 41.6111 507.665 41.3004 508.119L40.4004 506.859L42.1404 506.699Z" fill="#6C63FF"/>
</g>
<defs>
<clipPath id="clip0">
<rect width="1041.32" height="553.94" fill="white"/>
</clipPath>
</defs>
</svg>
